<?xml version="1.0" encoding="UTF-8"?>
<svg version="1.1" xmlns="http://www.w3.org/2000/svg" width="395" height="386">
<path d="M0 0 C0.67715057 0.00027191 1.35430115 0.00054382 2.05197144 0.00082397 C22.79969722 0.03900754 41.93429363 3.11417939 61.8125 9.1875 C62.49296387 9.38682129 63.17342773 9.58614258 63.87451172 9.79150391 C75.6125971 13.24983299 86.07142283 18.08343478 96.74755859 24.04052734 C99.49757969 25.56802783 102.28238315 27.02817343 105.0625 28.5 C109.22981616 30.79494946 113.09412904 33.21280323 116.8125 36.1875 C116.8125 36.8475 116.8125 37.5075 116.8125 38.1875 C117.53824219 38.4453125 118.26398438 38.703125 119.01171875 38.96875 C121.93297667 40.23992499 124.12122649 41.72766402 126.625 43.6875 C127.41519531 44.2959375 128.20539063 44.904375 129.01953125 45.53125 C129.61121094 46.0778125 130.20289063 46.624375 130.8125 47.1875 C130.8125 47.8475 130.8125 48.5075 130.8125 49.1875 C131.8025 49.1875 132.7925 49.1875 133.8125 49.1875 C135.06824778 50.64152374 136.31707552 52.10332582 137.5 53.6171875 C138.86820413 55.36309696 138.86820413 55.36309696 141.1875 57.0625 C144.87832561 60.05031121 147.75741871 63.56579752 150.8125 67.1875 C151.69093263 68.20353467 152.56986881 69.21913413 153.44921875 70.234375 C154.36255742 71.30158873 155.27532005 72.36929571 156.1875 73.4375 C157.04085938 74.43265625 157.89421875 75.4278125 158.7734375 76.453125 C160.58059291 78.87651348 161.4342088 80.2452351 161.8125 83.1875 C162.4725 83.1875 163.1325 83.1875 163.8125 83.1875 C167.72487261 88.48570098 170.97006405 94.25545975 173.8125 100.1875 C174.78692222 101.96094845 175.76667063 103.73147479 176.75 105.5 C179.37861217 110.30401534 181.6847674 115.14551887 183.8125 120.1875 C184.23660156 121.14785156 184.66070312 122.10820313 185.09765625 123.09765625 C187.33590922 128.25934167 189.24771369 133.16828118 190.2890625 138.69921875 C190.9398238 141.79276313 191.86034488 144.7789767 192.75 147.8125 C201.3168743 179.09099435 200.18048978 214.25401537 190.8125 245.1875 C190.37296503 246.97866853 189.93536009 248.77031215 189.5 250.5625 C186.22898922 262.39793149 181.0134618 273.44781407 174.70703125 283.94140625 C173.3201531 286.31768613 172.11457748 288.61509149 170.94140625 291.08984375 C168.76091576 295.51696433 165.95346312 299.29789517 162.9375 303.1875 C162.43347656 303.8475 161.92945313 304.5075 161.41015625 305.1875 C160.39585915 306.51568444 159.37894848 307.84187724 158.359375 309.16601562 C156.25551784 311.91537441 154.1913119 314.69371099 152.12939453 317.47460938 C150.51100838 319.5796515 148.82989861 321.4583012 146.8125 323.1875 C146.1525 323.1875 145.4925 323.1875 144.8125 323.1875 C144.585625 323.74953125 144.35875 324.3115625 144.125 324.890625 C142.44320365 327.83376861 140.3414089 329.68794732 137.8125 331.9375 C136.925625 332.73671875 136.03875 333.5359375 135.125 334.359375 C132.8125 336.1875 132.8125 336.1875 130.8125 336.1875 C130.4825 337.1775 130.1525 338.1675 129.8125 339.1875 C127.87890625 340.765625 127.87890625 340.765625 125.375 342.4375 C124.46878906 343.04980469 123.56257813 343.66210938 122.62890625 344.29296875 C121.69949219 344.91816406 120.77007812 345.54335938 119.8125 346.1875 C118.14411906 347.37259032 116.47740354 348.56002932 114.8125 349.75 C73.05763071 378.83620926 20.66404004 390.30717722 -29.43310547 381.89233398 C-37.48620621 380.42945741 -45.37065278 378.63451304 -53.1875 376.1875 C-54.13238281 375.90390625 -55.07726562 375.6203125 -56.05078125 375.328125 C-71.25695816 370.5328161 -85.80136546 364.43447359 -99.46582031 356.21728516 C-101.09717219 355.24152761 -102.74737851 354.29749632 -104.3984375 353.35546875 C-109.53728843 350.39739069 -109.53728843 350.39739069 -111.1875 349.1875 C-111.1875 348.5275 -111.1875 347.8675 -111.1875 347.1875 C-113.1675 346.5275 -115.1475 345.8675 -117.1875 345.1875 C-117.1875 344.5275 -117.1875 343.8675 -117.1875 343.1875 C-117.9609375 342.8471875 -117.9609375 342.8471875 -118.75 342.5 C-124.34392129 339.48788854 -128.74171407 335.71038048 -133.1875 331.1875 C-134.2963515 330.09839861 -135.40712941 329.01125609 -136.51953125 327.92578125 C-137.67974929 326.78391694 -138.83990471 325.64198901 -140 324.5 C-140.59748047 323.91927734 -141.19496094 323.33855469 -141.81054688 322.74023438 C-143.30764673 321.26024424 -144.75238731 319.72767218 -146.1875 318.1875 C-146.1875 317.5275 -146.1875 316.8675 -146.1875 316.1875 C-147.1775 315.8575 -148.1675 315.5275 -149.1875 315.1875 C-150.48681641 313.82739258 -150.48681641 313.82739258 -151.7890625 312.08203125 C-152.2747168 311.43556641 -152.76037109 310.78910156 -153.26074219 310.12304688 C-153.77282227 309.42244141 -154.28490234 308.72183594 -154.8125 308 C-155.61155762 306.9162207 -155.61155762 306.9162207 -156.42675781 305.81054688 C-164.92894826 294.17167549 -172.17428301 282.2962568 -178.1875 269.1875 C-178.56438965 268.37812988 -178.9412793 267.56875977 -179.32958984 266.73486328 C-185.57294621 253.13667322 -189.2770175 239.75660839 -191.69995117 225.00317383 C-192.00531228 223.23966375 -192.34870679 221.48186 -192.74731445 219.73706055 C-194.68603426 210.96329835 -194.52428105 202.12323429 -194.50317383 193.18237305 C-194.5000185 190.39136488 -194.52352129 187.60142436 -194.54882812 184.81054688 C-194.58462231 174.45549521 -193.79898812 165.24383186 -191.1875 155.1875 C-190.83739902 153.33642614 -190.50126579 151.48257804 -190.1875 149.625 C-190.0225 148.73039063 -189.8575 147.83578125 -189.6875 146.9140625 C-189.35482394 145.09993834 -189.04220777 143.28201807 -188.75 141.4609375 C-187.25382712 133.58524971 -184.4388356 126.44998691 -181.375 119.0625 C-180.96056641 118.06130127 -180.54613281 117.06010254 -180.11914062 116.02856445 C-173.97903134 101.57866662 -166.00494474 88.42121162 -156.1875 76.1875 C-154.95599326 74.60598608 -153.72680298 73.02266547 -152.5 71.4375 C-151.92121094 70.69628906 -151.34242188 69.95507812 -150.74609375 69.19140625 C-149.50520732 67.59598085 -148.28093608 65.98763599 -147.0625 64.375 C-145.1875 62.1875 -145.1875 62.1875 -142.875 60.375 C-140.43760741 58.3910758 -138.68392217 56.46600175 -136.6875 54.0625 C-134.04440972 50.94042174 -132.13124733 49.46341826 -128.1875 48.1875 C-127.8575 47.1975 -127.5275 46.2075 -127.1875 45.1875 C-124.3862136 42.60955079 -121.25730874 40.4349551 -118.1875 38.1875 C-117.08728516 37.36572266 -117.08728516 37.36572266 -115.96484375 36.52734375 C-99.19216565 24.35780201 -80.98126585 15.24611355 -61.1875 9.1875 C-60.50929199 8.97351562 -59.83108398 8.75953125 -59.13232422 8.5390625 C-39.49761291 2.34485991 -20.62345701 -0.01407395 0 0 Z " fill="#96F3A6" transform="translate(196.1875,0.8125)"/>
<path d="M0 0 C0.88418671 1.98057823 1.76685984 3.96183849 2.64453125 5.9453125 C3.6975396 8.31837454 4.75897942 10.68712311 5.82421875 13.0546875 C6.46637699 14.4946886 7.10830288 15.93479335 7.75 17.375 C8.06783447 18.07689453 8.38566895 18.77878906 8.71313477 19.50195312 C10.04157268 22.49826636 11 24.68485896 11 28 C14.09930847 25.34479976 15.64024375 22.1555817 17.5 18.5625 C18.64164142 16.36183596 19.80638877 14.172915 21 12 C21.37511719 11.20335937 21.75023437 10.40671875 22.13671875 9.5859375 C25.38458331 6.8215077 29.24569019 7.74022451 33.3125 8.0625 C34.15490234 8.10310547 34.99730469 8.14371094 35.86523438 8.18554688 C40.86331612 8.50989463 44.69413368 9.22069678 49 12 C50.28774591 14.97791242 50.21262906 16.41850574 49.1015625 19.45703125 C47.57711823 24.36011972 47.01783366 29.29136645 46.375 34.375 C46.2409375 35.39722656 46.106875 36.41945312 45.96875 37.47265625 C45.64053812 39.98113278 45.31778676 42.49018513 45 45 C45.86625 45.103125 46.7325 45.20625 47.625 45.3125 C56.79929468 47.1813378 64.17880744 53.94279527 69.71484375 61.26953125 C74.14431163 68.74173391 76.57884758 77.31728636 76 86 C78.60417711 84.88392409 80.03121203 83.96476062 81.9375 81.8125 C84 80 84 80 86.3125 80 C94.47846748 83.03849953 100.11898992 87.73791983 104.328125 95.42578125 C106.6150534 100.60358042 108.49469863 106.3509184 107 112 C104.14566816 115.70055728 101.55900243 116.70654802 97.0625 117.6875 C96.04285156 117.91824219 95.02320313 118.14898437 93.97265625 118.38671875 C91.31699588 118.93460138 88.66042588 119.47575402 86 120 C86.50660156 121.485 86.50660156 121.485 87.0234375 123 C87.47412292 124.33327771 87.92463441 125.66661422 88.375 127 C88.59671875 127.64839844 88.8184375 128.29679688 89.046875 128.96484375 C89.37558594 129.94130859 89.37558594 129.94130859 89.7109375 130.9375 C90.00943604 131.81728516 90.00943604 131.81728516 90.31396484 132.71484375 C92.4660592 139.8833858 93.32872019 146.13065394 93.37109375 153.60546875 C93.38012222 154.60653152 93.3891507 155.6075943 93.39845276 156.63899231 C93.41289805 158.74928831 93.42182768 160.85962852 93.42553711 162.9699707 C93.43740187 166.16110722 93.48661928 169.3502879 93.53710938 172.54101562 C93.6256291 183.70913546 93.39312259 192.96498184 88 203 C87.53327881 203.8854248 87.06655762 204.77084961 86.58569336 205.68310547 C81.75374921 214.47603931 75.08884339 222.53700731 68.5 230.0625 C66.04102721 232.70324084 66.04102721 232.70324084 65.03125 234.99609375 C64 237 64 237 62.6171875 238.33203125 C60.23424387 240.78980161 58.73129068 243.69467426 57.125 246.6875 C56.77203857 247.34089355 56.41907715 247.99428711 56.05541992 248.66748047 C53.22008983 254.12797205 51.30136655 259.66808948 49.81103516 265.6315918 C48.54352207 270.36990747 46.88404169 272.99942965 43 276 C40.45145959 276.95210708 38.25035749 277.63036453 35.625 278.1875 C34.56671997 278.42774902 34.56671997 278.42774902 33.48706055 278.67285156 C22.67151246 281.04490477 12.11789574 282.16895861 1.0625 282.25 C0.18634033 282.2593457 -0.68981934 282.26869141 -1.5925293 282.27832031 C-15.6309376 282.20869731 -26.60530364 276.15100351 -37.61328125 267.796875 C-40.05347836 265.90002415 -40.05347836 265.90002415 -43.0625 264.125 C-49.82865594 259.230334 -55.65549123 253.12499439 -60 246 C-60.66708984 245.40251953 -60.66708984 245.40251953 -61.34765625 244.79296875 C-63.81278796 242.1180386 -65.33260285 238.95315769 -67 235.75 C-67.34289062 235.10675781 -67.68578125 234.46351563 -68.0390625 233.80078125 C-72.08698023 226.12209762 -74.77889275 218.64649345 -76.6875 210.1875 C-76.91244141 209.25357422 -77.13738281 208.31964844 -77.36914062 207.35742188 C-78.7875883 201.14470727 -79.28843741 195.36554512 -79 189 C-79.61359375 188.731875 -80.2271875 188.46375 -80.859375 188.1875 C-83.97063825 186.46154374 -85.23435049 184.02682774 -87 181 C-87 180.34 -87 179.68 -87 179 C-87.66 179 -88.32 179 -89 179 C-89.81832722 177.10667466 -90.62942268 175.21022267 -91.4375 173.3125 C-91.88996094 172.25675781 -92.34242187 171.20101562 -92.80859375 170.11328125 C-97.02801268 159.08745538 -96.13633685 144.96698486 -92 134 C-91.01 133.01 -91.01 133.01 -90 132 C-89.3574765 129.93125966 -89.3574765 129.93125966 -89 128 C-89.6290625 128.2165625 -90.258125 128.433125 -90.90625 128.65625 C-96.47291867 130.46709403 -101.1509759 131.79308801 -107 131 C-112.94511419 126.40604813 -116.48835815 120.30626895 -118 113 C-118.1546875 112.34773438 -118.309375 111.69546875 -118.46875 111.0234375 C-118.79531243 108.67400227 -118.78249953 107.24968614 -118 105 C-112.08582393 98.95836323 -103.53314541 95.58133142 -96 92 C-94.95328125 91.44828125 -93.9065625 90.8965625 -92.828125 90.328125 C-90 89 -90 89 -87 89 C-87.02094727 88.20827393 -87.04189453 87.41654785 -87.06347656 86.60083008 C-87.14675467 83.00484982 -87.19869891 79.40907264 -87.25 75.8125 C-87.30027344 73.94368164 -87.30027344 73.94368164 -87.3515625 72.03710938 C-87.36445312 70.83505859 -87.37734375 69.63300781 -87.390625 68.39453125 C-87.41157227 67.28956299 -87.43251953 66.18459473 -87.45410156 65.04614258 C-86.89733232 61.31129859 -85.64529598 59.64498853 -83 57 C-82.34 57 -81.68 57 -81 57 C-81 56.34 -81 55.68 -81 55 C-71.36970456 49.82817467 -61.71144472 45.88549357 -50.75 49 C-46.65034918 50.67052701 -45.30270547 53.20451364 -43.59375 57.16015625 C-43 59 -43 59 -43 61 C-42.34 61 -41.68 61 -41 61 C-40.38143492 55.06840276 -43.53724613 51.18046137 -46.46875 46.25390625 C-48.10617221 42.77438406 -48.54503382 40.78851939 -48 37 C-46.2897647 34.68741767 -44.42876595 33.65156085 -42 32 C-41.34 32 -40.68 32 -40 32 C-39.773125 31.4225 -39.54625 30.845 -39.3125 30.25 C-37.61949517 27.347706 -35.81853141 25.81191305 -33 24 C-29.3041323 24.36172322 -26.73088921 26.3412899 -23.75 28.4375 C-22.85796875 29.05496094 -21.9659375 29.67242187 -21.046875 30.30859375 C-20.37140625 30.86675781 -19.6959375 31.42492187 -19 32 C-19 32.66 -19 33.32 -19 34 C-18.01 34 -17.02 34 -16 34 C-16.24234375 33.36497559 -16.4846875 32.72995117 -16.734375 32.07568359 C-17.83315994 29.17922311 -18.91667827 26.27727748 -20 23.375 C-20.3815625 22.37597656 -20.763125 21.37695312 -21.15625 20.34765625 C-21.5171875 19.37441406 -21.878125 18.40117188 -22.25 17.3984375 C-22.75273437 16.06304932 -22.75273437 16.06304932 -23.265625 14.70068359 C-24.08899422 11.67272137 -24.19916978 9.12481987 -24 6 C-22.3508535 3.29324869 -20.9441891 2.98296225 -17.890625 2.05078125 C-16.68921875 1.80714844 -15.4878125 1.56351563 -14.25 1.3125 C-13.05890625 1.06113281 -11.8678125 0.80976562 -10.640625 0.55078125 C-7.0320937 0.00485538 -3.64324244 -0.0980873 0 0 Z " fill="#48BC73" transform="translate(197,48)"/>
<path d="M0 0 C0.88418671 1.98057823 1.76685984 3.96183849 2.64453125 5.9453125 C3.6975396 8.31837454 4.75897942 10.68712311 5.82421875 13.0546875 C6.46637699 14.4946886 7.10830288 15.93479335 7.75 17.375 C8.06783447 18.07689453 8.38566895 18.77878906 8.71313477 19.50195312 C10.04157268 22.49826636 11 24.68485896 11 28 C14.09930847 25.34479976 15.64024375 22.1555817 17.5 18.5625 C18.64164142 16.36183596 19.80638877 14.172915 21 12 C21.37511719 11.20335937 21.75023437 10.40671875 22.13671875 9.5859375 C25.38458331 6.8215077 29.24569019 7.74022451 33.3125 8.0625 C34.15490234 8.10310547 34.99730469 8.14371094 35.86523438 8.18554688 C40.86331612 8.50989463 44.69413368 9.22069678 49 12 C50.28774591 14.97791242 50.21262906 16.41850574 49.1015625 19.45703125 C47.57711823 24.36011972 47.01783366 29.29136645 46.375 34.375 C46.2409375 35.39722656 46.106875 36.41945312 45.96875 37.47265625 C45.64053812 39.98113278 45.31778676 42.49018513 45 45 C45.86625 45.103125 46.7325 45.20625 47.625 45.3125 C56.79929468 47.1813378 64.17880744 53.94279527 69.71484375 61.26953125 C74.14431163 68.74173391 76.57884758 77.31728636 76 86 C76.99 85.67 77.98 85.34 79 85 C79 85.66 79 86.32 79 87 C78.01 87 77.02 87 76 87 C76 87.66 76 88.32 76 89 C73.56644121 90.53224072 72.34278436 91.03344238 69.4375 90.75 C67 90 67 90 64 88 C61.92230707 87.61767169 61.92230707 87.61767169 59.6875 87.5 C55.87871042 87.15770682 52.58942399 86.38054769 49 85 C49 84.34 49 83.68 49 83 C40.3971075 80.2470744 33.76411911 83.07141776 26 87 C20.8595408 90.1237515 16.94624942 93.87527658 13.2265625 98.58203125 C12 100 12 100 10 101 C8.95191959 102.97522846 7.9479589 104.97481509 7 107 C6.34 107 5.68 107 5 107 C4.62875 108.051875 4.62875 108.051875 4.25 109.125 C2.3228773 113.5573822 -0.01060333 117.08299821 -3.5625 120.375 C-5.83259525 122.81971796 -6.44275562 123.81071254 -7.4375 126.8125 C-8.76833013 130.82754683 -10.82222855 133.6136399 -13.4375 136.90234375 C-16.0226918 140.37296374 -17.99758118 144.17236756 -20 148 C-19.11248047 148.36351562 -19.11248047 148.36351562 -18.20703125 148.734375 C-12.58543576 151.1187385 -8.28916482 153.63929878 -4 158.0625 C0.49795352 162.41989248 5.0337981 163.68541314 11 165 C10.34 165.66 9.68 166.32 9 167 C5.875 166.625 5.875 166.625 3 166 C2.67 167.32 2.34 168.64 2 170 C1.938125 169.05125 1.87625 168.1025 1.8125 167.125 C1.4103125 165.578125 1.4103125 165.578125 1 164 C-1.46255685 162.54708727 -1.46255685 162.54708727 -4 162 C-3.67 162.99 -3.34 163.98 -3 165 C-2.9193378 166.48123547 -2.89238807 167.96582204 -2.90234375 169.44921875 C-2.90717773 170.72055664 -2.90717773 170.72055664 -2.91210938 172.01757812 C-2.92467773 173.33918945 -2.92467773 173.33918945 -2.9375 174.6875 C-2.94201172 175.58017578 -2.94652344 176.47285156 -2.95117188 177.39257812 C-2.96295017 179.59511987 -2.97939836 181.79752599 -3 184 C-5.22189824 181.77810176 -5.92598892 179.91517292 -7 177 C-8.98 179.31 -10.96 181.62 -13 184 C-13.66 183.67 -14.32 183.34 -15 183 C-14.24203125 182.25169922 -14.24203125 182.25169922 -13.46875 181.48828125 C-8.29851012 175.77434551 -7.25789027 171.65758423 -7.4609375 164.015625 C-8.05606177 160.68637906 -8.99970284 158.71130326 -11 156 C-12.485 155.01 -12.485 155.01 -14 154 C-14 156.97 -14 159.94 -14 163 C-14.66 163 -15.32 163 -16 163 C-16.66 159.7 -17.32 156.4 -18 153 C-19.32 152.67 -20.64 152.34 -22 152 C-22.0928125 153.546875 -22.0928125 153.546875 -22.1875 155.125 C-23.37645153 160.79538421 -26.15305403 163.6866162 -30.8125 167 C-32.3903125 167.99 -32.3903125 167.99 -34 169 C-36.03906806 170.55789533 -38.05986164 172.13583403 -40.0703125 173.73046875 C-42.06574339 175.04325223 -43.66643018 175.56958601 -46 176 C-45.26567234 178.10968724 -44.51192319 180.21262133 -43.75 182.3125 C-43.33234375 183.48425781 -42.9146875 184.65601563 -42.484375 185.86328125 C-40.95815018 189.08843527 -39.99818765 190.20457367 -37 192 C-35.515 192.99 -35.515 192.99 -34 194 C-34.94875 193.814375 -35.8975 193.62875 -36.875 193.4375 C-39.89868793 192.71313368 -39.89868793 192.71313368 -42 194 C-43.65 189.05 -45.3 184.1 -47 179 C-51.79736132 179.95947226 -55.936092 181.4123861 -60.4765625 183.16015625 C-63 184 -63 184 -66 184 C-65.34 188.62 -64.68 193.24 -64 198 C-64.99 198.33 -65.98 198.66 -67 199 C-67 194.38 -67 189.76 -67 185 C-68.8975 185.70125 -70.795 186.4025 -72.75 187.125 C-78.3592881 189.19799778 -78.3592881 189.19799778 -81.25 188.3046875 C-83.91146602 186.32046953 -85.34318083 183.84026143 -87 181 C-87 180.34 -87 179.68 -87 179 C-87.66 179 -88.32 179 -89 179 C-89.81832722 177.10667466 -90.62942268 175.21022267 -91.4375 173.3125 C-91.88996094 172.25675781 -92.34242187 171.20101562 -92.80859375 170.11328125 C-97.02801268 159.08745538 -96.13633685 144.96698486 -92 134 C-91.01 133.01 -91.01 133.01 -90 132 C-89.3574765 129.93125966 -89.3574765 129.93125966 -89 128 C-89.6290625 128.2165625 -90.258125 128.433125 -90.90625 128.65625 C-96.47291867 130.46709403 -101.1509759 131.79308801 -107 131 C-112.94511419 126.40604813 -116.48835815 120.30626895 -118 113 C-118.1546875 112.34773438 -118.309375 111.69546875 -118.46875 111.0234375 C-118.79531243 108.67400227 -118.78249953 107.24968614 -118 105 C-112.08582393 98.95836323 -103.53314541 95.58133142 -96 92 C-94.95328125 91.44828125 -93.9065625 90.8965625 -92.828125 90.328125 C-90 89 -90 89 -87 89 C-87.02094727 88.20827393 -87.04189453 87.41654785 -87.06347656 86.60083008 C-87.14675467 83.00484982 -87.19869891 79.40907264 -87.25 75.8125 C-87.30027344 73.94368164 -87.30027344 73.94368164 -87.3515625 72.03710938 C-87.36445312 70.83505859 -87.37734375 69.63300781 -87.390625 68.39453125 C-87.41157227 67.28956299 -87.43251953 66.18459473 -87.45410156 65.04614258 C-86.89733232 61.31129859 -85.64529598 59.64498853 -83 57 C-82.34 57 -81.68 57 -81 57 C-81 56.34 -81 55.68 -81 55 C-71.36970456 49.82817467 -61.71144472 45.88549357 -50.75 49 C-46.65034918 50.67052701 -45.30270547 53.20451364 -43.59375 57.16015625 C-43 59 -43 59 -43 61 C-42.34 61 -41.68 61 -41 61 C-40.38143492 55.06840276 -43.53724613 51.18046137 -46.46875 46.25390625 C-48.10617221 42.77438406 -48.54503382 40.78851939 -48 37 C-46.2897647 34.68741767 -44.42876595 33.65156085 -42 32 C-41.34 32 -40.68 32 -40 32 C-39.773125 31.4225 -39.54625 30.845 -39.3125 30.25 C-37.61949517 27.347706 -35.81853141 25.81191305 -33 24 C-29.3041323 24.36172322 -26.73088921 26.3412899 -23.75 28.4375 C-22.85796875 29.05496094 -21.9659375 29.67242187 -21.046875 30.30859375 C-20.37140625 30.86675781 -19.6959375 31.42492187 -19 32 C-19 32.66 -19 33.32 -19 34 C-18.01 34 -17.02 34 -16 34 C-16.24234375 33.36497559 -16.4846875 32.72995117 -16.734375 32.07568359 C-17.83315994 29.17922311 -18.91667827 26.27727748 -20 23.375 C-20.3815625 22.37597656 -20.763125 21.37695312 -21.15625 20.34765625 C-21.5171875 19.37441406 -21.878125 18.40117188 -22.25 17.3984375 C-22.75273437 16.06304932 -22.75273437 16.06304932 -23.265625 14.70068359 C-24.08899422 11.67272137 -24.19916978 9.12481987 -24 6 C-22.3508535 3.29324869 -20.9441891 2.98296225 -17.890625 2.05078125 C-16.68921875 1.80714844 -15.4878125 1.56351563 -14.25 1.3125 C-13.05890625 1.06113281 -11.8678125 0.80976562 -10.640625 0.55078125 C-7.0320937 0.00485538 -3.64324244 -0.0980873 0 0 Z " fill="#6EC16F" transform="translate(197,48)"/>
<path d="M0 0 C0.79661673 2.16485157 1.58704361 4.33198125 2.375 6.5 C2.81585938 7.7065625 3.25671875 8.913125 3.7109375 10.15625 C6.46484554 18.20266484 7.26975285 25.01525574 7.125 33.5 C7.11597656 34.51320312 7.10695313 35.52640625 7.09765625 36.5703125 C7.07429007 39.04712801 7.04153168 41.52343379 7 44 C5 41 5 41 5 39 C4.01 39.495 4.01 39.495 3 40 C0.95944995 40.07065617 -1.08334257 40.08421976 -3.125 40.0625 C-4.22070312 40.05347656 -5.31640625 40.04445312 -6.4453125 40.03515625 C-7.28835938 40.02355469 -8.13140625 40.01195312 -9 40 C-9.33 40.99 -9.66 41.98 -10 43 C-10.66 42.34 -11.32 41.68 -12 41 C-14.65719837 40.31822002 -14.65719837 40.31822002 -17.625 39.875 C-19.39875 39.58625 -21.1725 39.2975 -23 39 C-23.33 43.62 -23.66 48.24 -24 53 C-24.66 52.67 -25.32 52.34 -26 52 C-26.31241371 49.45058627 -26.51303421 46.99638487 -26.625 44.4375 C-26.66367187 43.72658203 -26.70234375 43.01566406 -26.7421875 42.28320312 C-26.83671783 40.52257575 -26.91945817 38.76132272 -27 37 C-28.12664062 36.7215625 -29.25328125 36.443125 -30.4140625 36.15625 C-34 35 -34 35 -35.375 32.5 C-35.684375 31.2625 -35.684375 31.2625 -36 30 C-36.495 29.01 -36.495 29.01 -37 28 C-38.66954308 28.99519027 -40.3355875 29.99625263 -42 31 C-43.23363281 31.69802734 -43.23363281 31.69802734 -44.4921875 32.41015625 C-47.3921371 34.4211049 -49.13405845 35.97617508 -51 39 C-51.59379693 43.57718468 -50.85705932 48.15698975 -50.37109375 52.71875 C-49.42115741 61.88237707 -53.70149897 67.48949295 -59.0625 74.6171875 C-61 77 -61 77 -62.70703125 78.6640625 C-66.27366502 82.34922488 -65.13810892 89.5677452 -65.10546875 94.37890625 C-64.98748919 97.3109168 -64.49324504 100.11099335 -64 103 C-64.4375 105.375 -64.4375 105.375 -65 107 C-68.51089506 99.27603086 -68.12280565 91.30984874 -68 83 C-76.26230453 87.36990537 -80.83161311 91.13925699 -84 100 C-84.30421875 100.74765625 -84.6084375 101.4953125 -84.921875 102.265625 C-87.78457427 110.20556449 -87.71915348 118.65207918 -88 127 C-89.5 125.75 -89.5 125.75 -91 124 C-91 122.68 -91 121.36 -91 120 C-91.99 120 -92.98 120 -94 120 C-92.41087375 114.55844647 -90.75219584 109.14137181 -89 103.75 C-88.690625 102.79609375 -88.38125 101.8421875 -88.0625 100.859375 C-86.91743391 97.77780008 -85.51733794 94.91397854 -84 92 C-86.47221679 93.18497983 -88.9250205 94.39553948 -91.375 95.625 C-92.07367188 95.95628906 -92.77234375 96.28757812 -93.4921875 96.62890625 C-97.21233781 98.52475208 -98.7018923 99.33911574 -100.4765625 103.2734375 C-100.64929688 104.17320312 -100.82203125 105.07296875 -101 106 C-101.66 104.68 -102.32 103.36 -103 102 C-103.55429688 102.37253906 -104.10859375 102.74507813 -104.6796875 103.12890625 C-105.40414062 103.60199219 -106.12859375 104.07507813 -106.875 104.5625 C-107.59429687 105.03816406 -108.31359375 105.51382813 -109.0546875 106.00390625 C-109.69664062 106.33261719 -110.33859375 106.66132813 -111 107 C-111.66 106.67 -112.32 106.34 -113 106 C-111.71874041 104.78063701 -110.42416553 103.57526712 -109.125 102.375 C-108.40570313 101.70210938 -107.68640625 101.02921875 -106.9453125 100.3359375 C-98.45274803 93.60045534 -88.49620155 89.18297888 -78.74609375 84.58789062 C-69.1583514 79.92836998 -60.68316191 74.35524103 -56.8828125 63.9375 C-55.39120459 58.52277843 -56.04902971 52.92717603 -56.4296875 47.3828125 C-56.58622182 42.70101316 -56.35614524 39.79454295 -53.3125 36.10546875 C-50.69049007 33.46566937 -47.89736718 31.30615436 -44.75 29.3125 C-41.3059462 27.12604766 -39.66184481 25.70837591 -38 22 C-36.36209288 20.95355934 -34.68991979 19.9601817 -33 19 C-30.26727008 16.90582255 -27.66166706 14.71067944 -25.3125 12.1875 C-24 11 -24 11 -21 11 C-20.77183594 10.39414063 -20.54367187 9.78828125 -20.30859375 9.1640625 C-18.62182586 6.37460157 -17.00612302 5.71497524 -14.0625 4.375 C-4.19841167 -0.18659607 -4.19841167 -0.18659607 0 0 Z " fill="#66BE6A" transform="translate(283,169)"/>
<path d="M0 0 C0 3 0 3 -1.86328125 5.19140625 C-2.67152344 5.97386719 -3.47976562 6.75632813 -4.3125 7.5625 C-5.11300781 8.34753906 -5.91351563 9.13257813 -6.73828125 9.94140625 C-9 12 -9 12 -12 14 C-11.97603576 16.92663293 -11.80092513 19.66359754 -11.5 22.5625 C-10.52611886 35.37123606 -13.84714626 41.97330487 -22 52 C-22.56332031 52.54914063 -23.12664062 53.09828125 -23.70703125 53.6640625 C-27.27366502 57.34922488 -26.13810892 64.5677452 -26.10546875 69.37890625 C-25.98748919 72.3109168 -25.49324504 75.11099335 -25 78 C-25.4375 80.375 -25.4375 80.375 -26 82 C-29.51089506 74.27603086 -29.12280565 66.30984874 -29 58 C-37.26230453 62.36990537 -41.83161311 66.13925699 -45 75 C-45.30421875 75.74765625 -45.6084375 76.4953125 -45.921875 77.265625 C-48.78457427 85.20556449 -48.71915348 93.65207918 -49 102 C-50.5 100.75 -50.5 100.75 -52 99 C-52 97.68 -52 96.36 -52 95 C-52.99 95 -53.98 95 -55 95 C-53.41087375 89.55844647 -51.75219584 84.14137181 -50 78.75 C-49.690625 77.79609375 -49.38125 76.8421875 -49.0625 75.859375 C-47.91743391 72.77780008 -46.51733794 69.91397854 -45 67 C-47.47221679 68.18497983 -49.9250205 69.39553948 -52.375 70.625 C-53.07367188 70.95628906 -53.77234375 71.28757812 -54.4921875 71.62890625 C-58.21233781 73.52475208 -59.7018923 74.33911574 -61.4765625 78.2734375 C-61.64929688 79.17320312 -61.82203125 80.07296875 -62 81 C-62.66 79.68 -63.32 78.36 -64 77 C-64.55429688 77.37253906 -65.10859375 77.74507813 -65.6796875 78.12890625 C-66.40414062 78.60199219 -67.12859375 79.07507813 -67.875 79.5625 C-68.59429687 80.03816406 -69.31359375 80.51382813 -70.0546875 81.00390625 C-70.69664062 81.33261719 -71.33859375 81.66132813 -72 82 C-72.66 81.67 -73.32 81.34 -74 81 C-72.71874041 79.78063701 -71.42416553 78.57526712 -70.125 77.375 C-69.40570313 76.70210938 -68.68640625 76.02921875 -67.9453125 75.3359375 C-59.45274803 68.60045534 -49.49620155 64.18297888 -39.74609375 59.58789062 C-30.1583514 54.92836998 -21.68316191 49.35524103 -17.8828125 38.9375 C-16.39120459 33.52277843 -17.04902971 27.92717603 -17.4296875 22.3828125 C-17.58505352 17.73595603 -17.37284861 14.81473204 -14.3515625 11.15234375 C-11.51156391 8.29474186 -8.43413736 5.86275402 -5.125 3.5625 C-4.15820312 2.88316406 -3.19140625 2.20382813 -2.1953125 1.50390625 C-1.47085938 1.00761719 -0.74640625 0.51132813 0 0 Z " fill="#86EFA0" transform="translate(244,194)"/>
<path d="M0 0 C9.1309898 0.32610678 13.74574873 4.74574873 20 11 C24.1223594 13.97725957 28.1027977 14.92095543 33 16 C32.34 16.66 31.68 17.32 31 18 C27.875 17.625 27.875 17.625 25 17 C24.67 18.32 24.34 19.64 24 21 C23.938125 20.05125 23.87625 19.1025 23.8125 18.125 C23.544375 17.09375 23.27625 16.0625 23 15 C20.53744315 13.54708727 20.53744315 13.54708727 18 13 C18.33 13.99 18.66 14.98 19 16 C19.0806622 17.48123547 19.10761193 18.96582204 19.09765625 20.44921875 C19.09443359 21.29677734 19.09121094 22.14433594 19.08789062 23.01757812 C19.07951172 23.89865234 19.07113281 24.77972656 19.0625 25.6875 C19.05798828 26.58017578 19.05347656 27.47285156 19.04882812 28.39257812 C19.03704983 30.59511987 19.02060164 32.79752599 19 35 C16.77810176 32.77810176 16.07401108 30.91517292 15 28 C12.03 31.465 12.03 31.465 9 35 C8.34 34.67 7.68 34.34 7 34 C7.5053125 33.50113281 8.010625 33.00226563 8.53125 32.48828125 C13.70148988 26.77434551 14.74210973 22.65758423 14.5390625 15.015625 C13.94393823 11.68637906 13.00029716 9.71130326 11 7 C10.01 6.34 9.02 5.68 8 5 C8 7.97 8 10.94 8 14 C7.34 14 6.68 14 6 14 C5.34 10.04 4.68 6.08 4 2 C2.68 2 1.36 2 0 2 C0 1.34 0 0.68 0 0 Z " fill="#86EC9F" transform="translate(175,197)"/>
<path d="M0 0 C0.7425 0.763125 1.485 1.52625 2.25 2.3125 C4.823554 4.95571199 4.823554 4.95571199 7.3125 6.6875 C7.869375 7.120625 8.42625 7.55375 9 8 C9 8.66 9 9.32 9 10 C9.66 10 10.32 10 11 10 C11 10.66 11 11.32 11 12 C11.8971875 12.433125 11.8971875 12.433125 12.8125 12.875 C15 14 15 14 18 16 C18.04166002 18.3329614 18.04166002 20.6670386 18 23 C18.66 23.66 19.32 24.32 20 25 C20 25.66 20 26.32 20 27 C14.5153058 26.34411802 12.47113137 23.96924258 9 19.88671875 C4.819936 13.85338419 2.31193441 6.93580324 0 0 Z " fill="#50BF73" transform="translate(232,231)"/>
<path d="M0 0 C0.66 0.33 1.32 0.66 2 1 C2 1.66 2 2.32 2 3 C2.66 3 3.32 3 4 3 C4.33 4.98 4.66 6.96 5 9 C4.34 8.67 3.68 8.34 3 8 C0.43730503 9.04109483 -1.02610343 10.02610343 -3 12 C-3 11.34 -3 10.68 -3 10 C-4.32 10 -5.64 10 -7 10 C-7.66 12.64 -8.32 15.28 -9 18 C-11.51083114 16.74458443 -11.87125446 15.49936512 -13 13 C-12.319375 12.505 -11.63875 12.01 -10.9375 11.5 C-7.20762886 8.32564158 -4.16751394 4.7209774 -1 1 C-0.67 0.67 -0.34 0.34 0 0 Z " fill="#7ACA84" transform="translate(64,50)"/>
<path d="M0 0 C0.66 0.33 1.32 0.66 2 1 C0.6875 2.5 0.6875 2.5 -1 4 C-1.99 4 -2.98 4 -4 4 C-2.68 4.33 -1.36 4.66 0 5 C-0.33 5.99 -0.66 6.98 -1 8 C-2.64551962 8.71727778 -4.31422289 9.38325228 -6 10 C-6.66 10.66 -7.32 11.32 -8 12 C-8.99 11.34 -9.98 10.68 -11 10 C-11.66 10.66 -12.32 11.32 -13 12 C-15.125 12.625 -15.125 12.625 -17 13 C-16.86328125 11.2265625 -16.86328125 11.2265625 -16 9 C-13.41796875 7.1484375 -13.41796875 7.1484375 -10.1875 5.375 C-9.12917969 4.78460937 -8.07085937 4.19421875 -6.98046875 3.5859375 C-5.99691406 3.06257813 -5.01335937 2.53921875 -4 2 C-3.25363281 1.57976563 -2.50726563 1.15953125 -1.73828125 0.7265625 C-1.16464844 0.48679687 -0.59101562 0.24703125 0 0 Z " fill="#75C27D" transform="translate(109,20)"/>
<path d="M0 0 C3.41627763 1.13875921 4.4255273 2.62650125 6.6015625 5.3828125 C8.01800191 7.02081785 9.48710863 8.28957068 11.1875 9.625 C13.7080962 11.75350346 14.8783678 12.97159306 16 16 C15.01 16.33 14.02 16.66 13 17 C13 16.34 13 15.68 13 15 C12.34 15 11.68 15 11 15 C10.67 15.66 10.34 16.32 10 17 C8.68 16.67 7.36 16.34 6 16 C4.875 10.375 4.875 10.375 6 7 C4.35 7 2.7 7 1 7 C0.36152073 4.52589282 0 2.53730112 0 0 Z " fill="#92F7A1" transform="translate(330,52)"/>
<path d="M0 0 C0.13277344 0.60328125 0.26554687 1.2065625 0.40234375 1.828125 C1.15046191 4.54677663 2.48881876 6.63467285 4 9 C1.6875 11.5 1.6875 11.5 -1 14 C-1.99 14 -2.98 14 -4 14 C-4.12375 14.53625 -4.2475 15.0725 -4.375 15.625 C-5.12206016 18.4638286 -6.05303364 21.22223202 -7 24 C-8.24540698 20.48604716 -7.76387905 18.63330973 -6.34765625 15.234375 C-5.98349609 14.34492188 -5.61933594 13.45546875 -5.24414062 12.5390625 C-4.85419922 11.61867188 -4.46425781 10.69828125 -4.0625 9.75 C-3.67642578 8.81414062 -3.29035156 7.87828125 -2.89257812 6.9140625 C-1.93833169 4.60502173 -0.97388338 2.30081138 0 0 Z " fill="#5E9F67" transform="translate(17,115)"/>
<path d="M0 0 C0.144375 0.598125 0.28875 1.19625 0.4375 1.8125 C0.8872439 3.56150404 1.42892341 5.28677023 2 7 C1.72230092 9.3406065 1.39460023 11.67624308 1 14 C0.34 14 -0.32 14 -1 14 C-1.33 14.66 -1.66 15.32 -2 16 C-2.61875 15.79375 -3.2375 15.5875 -3.875 15.375 C-4.57625 15.25125 -5.2775 15.1275 -6 15 C-6.66 15.66 -7.32 16.32 -8 17 C-7.30150228 13.0254496 -5.37107231 9.73425902 -3.4375 6.25 C-3.10814453 5.64800781 -2.77878906 5.04601562 -2.43945312 4.42578125 C-1.6303535 2.94829497 -0.81572338 1.47383964 0 0 Z " fill="#82D88D" transform="translate(28,94)"/>
<path d="M0 0 C0.66 0.33 1.32 0.66 2 1 C2 6.94 2 12.88 2 19 C1.01 18.01 0.02 17.02 -1 16 C-1 14.68 -1 13.36 -1 12 C-1.99 12 -2.98 12 -4 12 C-3.52309796 10.37433394 -3.04340334 8.74948689 -2.5625 7.125 C-2.29566406 6.22007812 -2.02882812 5.31515625 -1.75390625 4.3828125 C-1 2 -1 2 0 0 Z " fill="#7FE69B" transform="translate(193,277)"/>
<path d="M0 0 C6.49262793 6.3217693 6.49262793 6.3217693 7.8125 10.6875 C10.30332568 17.63559269 13.52739418 22.3873828 20 26 C18.21875 26.68359375 18.21875 26.68359375 16 27 C10.4716648 23.42355508 7.59600808 17.82544214 5 12 C4.08838732 10.20575655 3.17159772 8.41413523 2.25 6.625 C0 2.24698795 0 2.24698795 0 0 Z " fill="#85EDA3" transform="translate(232,231)"/>
<path d="M0 0 C0.33 0.66 0.66 1.32 1 2 C3.02463255 2.65213292 3.02463255 2.65213292 5 3 C1.98307429 3.84793248 -1.03905931 4.67562781 -4.0625 5.5 C-5.33383789 5.85771484 -5.33383789 5.85771484 -6.63085938 6.22265625 C-11.5858726 7.56184901 -15.86810247 8.27852904 -21 8 C-21 7.67 -21 7.34 -21 7 C-18.36 6.67 -15.72 6.34 -13 6 C-13 5.34 -13 4.68 -13 4 C-11.35 4 -9.7 4 -8 4 C-8 3.34 -8 2.68 -8 2 C-6.2984375 1.7834375 -6.2984375 1.7834375 -4.5625 1.5625 C-1.19222799 1.38828522 -1.19222799 1.38828522 0 0 Z " fill="#568B5D" transform="translate(251,374)"/>
<path d="M0 0 C0.33 0.66 0.66 1.32 1 2 C0.60167969 2.59167969 0.20335937 3.18335938 -0.20703125 3.79296875 C-3.54522679 8.75329267 -3.54522679 8.75329267 -6.625 13.875 C-8.13417446 16.20736053 -9.68997986 17.48653853 -12 19 C-11.70609375 18.43023437 -11.4121875 17.86046875 -11.109375 17.2734375 C-9.98745487 15.04486378 -9.98745487 15.04486378 -9.140625 12.8515625 C-6.93053594 7.32633985 -4.45315842 3.94711769 0 0 Z " fill="#57BC6D" transform="translate(197,164)"/>
<path d="M0 0 C0.33 0.66 0.66 1.32 1 2 C0.360625 2.5775 -0.27875 3.155 -0.9375 3.75 C-3.07182998 6.07835998 -3.33389185 7.05009248 -4 10 C-5.4375 11.75 -5.4375 11.75 -7 13 C-7.66 13 -8.32 13 -9 13 C-9 13.99 -9 14.98 -9 16 C-9.66 16 -10.32 16 -11 16 C-11 16.66 -11 17.32 -11 18 C-11.66 18 -12.32 18 -13 18 C-11.61462414 13.99461279 -9.74583305 11.14296986 -7.0625 7.875 C-6.37285156 7.02679688 -5.68320312 6.17859375 -4.97265625 5.3046875 C-3.37914083 3.44295662 -1.76674046 1.69474163 0 0 Z " fill="#63A16B" transform="translate(50,65)"/>
<path d="M0 0 C2.79081339 1.3954067 3.03903006 3.01419041 4.1875 5.875 C4.55230469 6.75929688 4.91710937 7.64359375 5.29296875 8.5546875 C6 11 6 11 5 14 C4.67 13.67 4.34 13.34 4 13 C3.67 13.66 3.34 14.32 3 15 C2.01 15 1.02 15 0 15 C-1.125 10.25 -1.125 10.25 0 8 C0.0689472 6.62657169 0.08467708 5.24997898 0.0625 3.875 C0.041875 2.59625 0.02125 1.3175 0 0 Z " fill="#68B373" transform="translate(376,114)"/>
<path d="M0 0 C0.66 0.33 1.32 0.66 2 1 C1.319375 1.495 0.63875 1.99 -0.0625 2.5 C-3.79601262 5.67745755 -6.85056529 9.25511407 -10 13 C-10.51433594 13.61101562 -11.02867187 14.22203125 -11.55859375 14.8515625 C-12.7113735 16.22967314 -13.85661797 17.61408239 -15 19 C-15 15.89448334 -14.4606285 14.64738916 -13 12 C-12.34 12 -11.68 12 -11 12 C-10.7421875 11.41605469 -10.484375 10.83210937 -10.21875 10.23046875 C-8.90301636 7.82250751 -7.45841408 6.22527307 -5.5 4.3125 C-4.8915625 3.71050781 -4.283125 3.10851562 -3.65625 2.48828125 C-2 1 -2 1 0 0 Z " fill="#57BB6B" transform="translate(220,136)"/>
<path d="M0 0 C1.74271938 2.297221 3.39911152 4.59866729 5 7 C4.625 9.6875 4.625 9.6875 4 12 C3.34 12 2.68 12 2 12 C1.27232997 10.76115681 0.56845185 9.50831659 -0.125 8.25 C-0.51945313 7.55390625 -0.91390625 6.8578125 -1.3203125 6.140625 C-2 4 -2 4 -1.1171875 1.734375 C-0.74851563 1.16203125 -0.37984375 0.5896875 0 0 Z " fill="#93EC98" transform="translate(152,97)"/>
<path d="M0 0 C10.74259681 5.0022779 10.74259681 5.0022779 14 9 C12.88625 8.67 11.7725 8.34 10.625 8 C6.62618057 6.74451248 6.62618057 6.74451248 3 8 C3 7.34 3 6.68 3 6 C2.34 5.67 1.68 5.34 1 5 C0.375 2.4375 0.375 2.4375 0 0 Z " fill="#7DCD89" transform="translate(299,29)"/>
<path d="M0 0 C0.66 0 1.32 0 2 0 C2 1.98 2 3.96 2 6 C2.66 6 3.32 6 4 6 C4.33 5.34 4.66 4.68 5 4 C6.125 10.625 6.125 10.625 5 14 C4.65772583 15.33106622 4.32248257 16.66400079 4 18 C2.24619442 14.08709763 1.47435082 10.4257665 0.875 6.1875 C0.70742187 5.02605469 0.53984375 3.86460937 0.3671875 2.66796875 C0.24601563 1.78753906 0.12484375 0.90710938 0 0 Z " fill="#56915F" transform="translate(7,235)"/>
<path d="M0 0 C0.99 0.33 1.98 0.66 3 1 C1.55049545 4.7910119 -0.15172566 8.3874638 -2 12 C-2.33 11.34 -2.66 10.68 -3 10 C-2.0625 7.875 -2.0625 7.875 -1 6 C-1.99 6.33 -2.98 6.66 -4 7 C-4.66 6.67 -5.32 6.34 -6 6 C-5.67 5.34 -5.34 4.68 -5 4 C-3.35 4 -1.7 4 0 4 C0 2.68 0 1.36 0 0 Z M-8 5 C-7.01 5.495 -7.01 5.495 -6 6 C-6.33 6.66 -6.66 7.32 -7 8 C-7.33 7.01 -7.66 6.02 -8 5 Z " fill="#6DB678" transform="translate(368,282)"/>
<path d="M0 0 C0.66 0.33 1.32 0.66 2 1 C2 1.99 2 2.98 2 4 C2.66 4.33 3.32 4.66 4 5 C2.04578965 5.86355778 0.08648653 6.71559934 -1.875 7.5625 C-2.96554687 8.03816406 -4.05609375 8.51382812 -5.1796875 9.00390625 C-6.11039062 9.33261719 -7.04109375 9.66132813 -8 10 C-8.66 9.67 -9.32 9.34 -10 9 C-10 8.34 -10 7.68 -10 7 C-7.36 6.67 -4.72 6.34 -2 6 C-2 4.68 -2 3.36 -2 2 C-1.34 2 -0.68 2 0 2 C0 1.34 0 0.68 0 0 Z " fill="#6BB077" transform="translate(281,361)"/>
<path d="M0 0 C2.20328263 3.30492394 2.31841367 4.91907089 1.7578125 8.79296875 C0.31619343 12.99149851 -2.88415351 15.94110109 -6 19 C-6.66 18.67 -7.32 18.34 -8 18 C-7.50628906 17.45472656 -7.01257813 16.90945312 -6.50390625 16.34765625 C-1.79891613 10.80958941 -0.11557776 7.28139871 0 0 Z " fill="#7EEA9B" transform="translate(190,213)"/>
<path d="M0 0 C0.99 0.66 1.98 1.32 3 2 C2.3125 3.875 2.3125 3.875 1 6 C-0.65816784 6.68753301 -2.32459336 7.35561283 -4 8 C-4.33 8.99 -4.66 9.98 -5 11 C-5.66 11 -6.32 11 -7 11 C-5.5140084 6.40693504 -3.14985318 3.56430755 0 0 Z " fill="#5F9E67" transform="translate(36,83)"/>
<path d="M0 0 C0.99 0.33 1.98 0.66 3 1 C2.38125 1.0825 1.7625 1.165 1.125 1.25 C-1.18437567 1.81258459 -1.18437567 1.81258459 -2.25 4.0625 C-2.4975 4.701875 -2.745 5.34125 -3 6 C-3.639375 5.814375 -4.27875 5.62875 -4.9375 5.4375 C-5.9584375 5.2209375 -5.9584375 5.2209375 -7 5 C-7.33 5.33 -7.66 5.66 -8 6 C-9.99958364 6.04080783 -12.00045254 6.04254356 -14 6 C-11.66828982 3.66828982 -10.1450503 3.31061716 -7 2.4375 C-3.41233901 1.44538827 -3.41233901 1.44538827 0 0 Z " fill="#599463" transform="translate(137,9)"/>
<path d="M0 0 C0.928125 0.5259375 0.928125 0.5259375 1.875 1.0625 C2.57625 1.371875 3.2775 1.68125 4 2 C4.66 1.67 5.32 1.34 6 1 C7.125 6.75 7.125 6.75 6 9 C3.69 6.69 1.38 4.38 -1 2 C-0.67 1.34 -0.34 0.68 0 0 Z " fill="#6CB276" transform="translate(54,320)"/>
<path d="M0 0 C4.0084034 2.0042017 5.41409657 3.49055963 8 7 C6.35 6.67 4.7 6.34 3 6 C3 7.32 3 8.64 3 10 C2.34 10 1.68 10 1 10 C0.67 6.7 0.34 3.4 0 0 Z " fill="#5ECD82" transform="translate(218,269)"/>
<path d="M0 0 C0.66 0 1.32 0 2 0 C2.6875 1.75 2.6875 1.75 3 4 C1.5625 6.25 1.5625 6.25 0 8 C-1.98 6.35 -3.96 4.7 -6 3 C-4.68 2.67 -3.36 2.34 -2 2 C-2 2.66 -2 3.32 -2 4 C-1.34 2.68 -0.68 1.36 0 0 Z " fill="#71B779" transform="translate(67,327)"/>
<path d="M0 0 C0.66 0.33 1.32 0.66 2 1 C1.67 1.99 1.34 2.98 1 4 C0.38125 4.144375 -0.2375 4.28875 -0.875 4.4375 C-3.18301007 4.80755045 -3.18301007 4.80755045 -4.4375 7 C-6 9 -6 9 -8.6875 9.75 C-9.450625 9.8325 -10.21375 9.915 -11 10 C-7.50640535 6.40365256 -3.88901869 3.16548033 0 0 Z " fill="#54885A" transform="translate(82,36)"/>
<path d="M0 0 C0.66 0.33 1.32 0.66 2 1 C2 1.99 2 2.98 2 4 C3.65 4 5.3 4 7 4 C4.6875 6.5 4.6875 6.5 2 9 C1.01 9 0.02 9 -1 9 C-1 5.88772805 -0.54372951 3.05847848 0 0 Z " fill="#5FA168" transform="translate(320,334)"/>
<path d="M0 0 C0.99 0 1.98 0 3 0 C3 0.66 3 1.32 3 2 C3.66 2 4.32 2 5 2 C5 2.66 5 3.32 5 4 C5.9590625 4.433125 5.9590625 4.433125 6.9375 4.875 C9 6 9 6 10 8 C9.05125 7.67 8.1025 7.34 7.125 7 C4.22937548 5.89840809 4.22937548 5.89840809 2 6 C1.34 4.02 0.68 2.04 0 0 Z " fill="#69D489" transform="translate(238,239)"/>
<path d="M0 0 C0.66 0.33 1.32 0.66 2 1 C-3.91596639 6.24369748 -3.91596639 6.24369748 -8 7 C-8.33 7.66 -8.66 8.32 -9 9 C-9.66 8.34 -10.32 7.68 -11 7 C-10.34 7 -9.68 7 -9 7 C-9 6.34 -9 5.68 -9 5 C-7.68 5 -6.36 5 -5 5 C-4.67 4.01 -4.34 3.02 -4 2 C-2.0625 0.75 -2.0625 0.75 0 0 Z " fill="#6AC679" transform="translate(159,217)"/>
<path d="M0 0 C4.21912747 0.4794463 6.79663178 1.16625119 10 4 C8.8553125 3.9690625 8.8553125 3.9690625 7.6875 3.9375 C4.89814214 3.87057159 4.89814214 3.87057159 2 5 C1.34 4.67 0.68 4.34 0 4 C0 2.68 0 1.36 0 0 Z " fill="#518F5A" transform="translate(268,14)"/>
<path d="M0 0 C4.1424367 1.38081223 5.32203099 3.59825558 8 7 C7.34 7.66 6.68 8.32 6 9 C6 8.34 6 7.68 6 7 C4.35 7 2.7 7 1 7 C0.36152073 4.52589282 0 2.53730112 0 0 Z " fill="#6DAD74" transform="translate(330,52)"/>
<path d="M0 0 C1.32 0.66 2.64 1.32 4 2 C-1.625 5.875 -1.625 5.875 -5 7 C-4.60196439 4.11424181 -4.20990931 3.17810487 -1.9375 1.25 C-1.298125 0.8375 -0.65875 0.425 0 0 Z " fill="#6FB57B" transform="translate(314,344)"/>
<path d="M0 0 C1.09570312 0.00902344 2.19140625 0.01804688 3.3203125 0.02734375 C4.16335938 0.03894531 5.00640625 0.05054688 5.875 0.0625 C4.885 1.5475 4.885 1.5475 3.875 3.0625 C0.4375 3.1875 0.4375 3.1875 -3.125 3.0625 C-4.115 3.3925 -5.105 3.7225 -6.125 4.0625 C-6.785 3.7325 -7.445 3.4025 -8.125 3.0625 C-8.125 2.4025 -8.125 1.7425 -8.125 1.0625 C-5.36047967 -0.31976016 -3.0788637 -0.03275387 0 0 Z " fill="#53BB6B" transform="translate(282.125,207.9375)"/>
<path d="M0 0 C2.09749995 2.35968744 2.96905704 3.54616994 3.1875 6.75 C3.125625 7.4925 3.06375 8.235 3 9 C1.35 9 -0.3 9 -2 9 C-1.34 6.03 -0.68 3.06 0 0 Z " fill="#81D48B" transform="translate(19,111)"/>
<path d="M0 0 C0 4.38968456 -2.12805101 5.76905739 -5 9 C-5.66 7.68 -6.32 6.36 -7 5 C-5.68 5 -4.36 5 -3 5 C-3.33 3.68 -3.66 2.36 -4 1 C-2.68 0.67 -1.36 0.34 0 0 Z " fill="#5B9161" transform="translate(357,304)"/>
<path d="M0 0 C1.12758089 3.38274266 0.81750262 4.76778223 0.0625 8.1875 C-0.13214844 9.08855469 -0.32679687 9.98960937 -0.52734375 10.91796875 C-0.68332031 11.60503906 -0.83929688 12.29210937 -1 13 C-3 11 -3 11 -3.046875 8.90625 C-2.94890625 8.1121875 -2.8509375 7.318125 -2.75 6.5 C-2.66234375 5.7059375 -2.5746875 4.911875 -2.484375 4.09375 C-2 2 -2 2 0 0 Z " fill="#91FAA0" transform="translate(11,144)"/>
<path d="M0 0 C1.65 0 3.3 0 5 0 C3.02 2.31 1.04 4.62 -1 7 C-1.66 6.01 -2.32 5.02 -3 4 C-2.01 3.67 -1.02 3.34 0 3 C0 2.01 0 1.02 0 0 Z " fill="#6BAF72" transform="translate(330,330)"/>
<path d="M0 0 C0.87656469 2.45438114 1.15930238 3.59561703 0.1875 6.0625 C-0.83619809 7.73274425 -1.91334336 9.37001504 -3 11 C-3.66 11 -4.32 11 -5 11 C-3.55049545 7.2089881 -1.84827434 3.6125362 0 0 Z " fill="#53895B" transform="translate(28,94)"/>
<path d="M0 0 C0.66 0 1.32 0 2 0 C3.5078125 1.53125 3.5078125 1.53125 5.125 3.5 C5.66382813 4.1496875 6.20265625 4.799375 6.7578125 5.46875 C7.16773438 5.9740625 7.57765625 6.479375 8 7 C7.01 7.66 6.02 8.32 5 9 C0.57142857 3.85714286 0.57142857 3.85714286 0 0 Z " fill="#58905F" transform="translate(338,60)"/>
<path d="M0 0 C2.31 0.33 4.62 0.66 7 1 C6.01 1.495 6.01 1.495 5 2 C5 2.66 5 3.32 5 4 C3.02 4 1.04 4 -1 4 C-0.67 2.68 -0.34 1.36 0 0 Z " fill="#74C681" transform="translate(251,9)"/>
<path d="M0 0 C0 3.21534057 -0.26476072 4.35582586 -2 7 C-4.625 8.75 -4.625 8.75 -7 10 C-5.33248852 6.05860922 -2.77289351 3.2107188 0 0 Z " fill="#84EC9E" transform="translate(269,273)"/>
<path d="M0 0 C3 2 3 2 3.5625 4.5625 C3.706875 5.366875 3.85125 6.17125 4 7 C4.66 7.33 5.32 7.66 6 8 C5.01 9.485 5.01 9.485 4 11 C3.32880451 9.5437455 2.66318193 8.08492133 2 6.625 C1.62875 5.81289063 1.2575 5.00078125 0.875 4.1640625 C0 2 0 2 0 0 Z " fill="#4C7B53" transform="translate(15,261)"/>
<path d="M0 0 C1.32 0.33 2.64 0.66 4 1 C4 1.99 4 2.98 4 4 C2.02 4.99 0.04 5.98 -2 7 C-1.34 4.69 -0.68 2.38 0 0 Z " fill="#94F99D" transform="translate(57,60)"/>
<path d="M0 0 C1.65 1.65 3.3 3.3 5 5 C3.02 5.99 3.02 5.99 1 7 C0.34 6.34 -0.32 5.68 -1 5 C-0.625 2.375 -0.625 2.375 0 0 Z " fill="#5ECA7E" transform="translate(239,248)"/>
<path d="M0 0 C0.66 0 1.32 0 2 0 C1.69381595 3.67420866 1.24228216 4.78135513 -1.5625 7.3125 C-2.366875 7.869375 -3.17125 8.42625 -4 9 C-3.35494404 5.51669784 -2.01782732 2.90567134 0 0 Z " fill="#58BB6C" transform="translate(202,155)"/>
<path d="M0 0 C5.57142857 5.14285714 5.57142857 5.14285714 6 9 C5.01 9 4.02 9 3 9 C1.35173889 6.03312999 0.55728913 3.34373475 0 0 Z " fill="#3C6642" transform="translate(360,86)"/>
<path d="M0 0 C2.475 0.495 2.475 0.495 5 1 C5 1.66 5 2.32 5 3 C5.99 3 6.98 3 8 3 C8 3.66 8 4.32 8 5 C5.03 4.505 5.03 4.505 2 4 C2 3.34 2 2.68 2 2 C1.34 2 0.68 2 0 2 C0 1.34 0 0.68 0 0 Z " fill="#66A471" transform="translate(322,47)"/>
<path d="M0 0 C1.98 0 3.96 0 6 0 C6.66 1.65 7.32 3.3 8 5 C6.02 4.34 4.04 3.68 2 3 C2 2.34 2 1.68 2 1 C1.34 0.67 0.68 0.34 0 0 Z " fill="#5C9566" transform="translate(77,343)"/>
<path d="M0 0 C0.6875 1.8125 0.6875 1.8125 1 4 C-0.3125 5.75 -0.3125 5.75 -2 7 C-2.66 7 -3.32 7 -4 7 C-4 5.68 -4 4.36 -4 3 C-2 1.25 -2 1.25 0 0 Z " fill="#65BE68" transform="translate(83,152)"/>
<path d="M0 0 C0.99 0.33 1.98 0.66 3 1 C3 1.66 3 2.32 3 3 C3.66 3 4.32 3 5 3 C5 3.66 5 4.32 5 5 C3.68 5.33 2.36 5.66 1 6 C0.34 4.35 -0.32 2.7 -1 1 C-0.67 0.67 -0.34 0.34 0 0 Z " fill="#92F89E" transform="translate(319,46)"/>
<path d="M0 0 C3.3 0 6.6 0 10 0 C10 0.99 10 1.98 10 3 C3.375 2.25 3.375 2.25 0 0 Z " fill="#538F61" transform="translate(140,375)"/>
<path d="M0 0 C3 1 3 1 5 5 C2.03 4.01 -0.94 3.02 -4 2 C-2.68 1.34 -1.36 0.68 0 0 Z " fill="#589062" transform="translate(115,363)"/>
<path d="M0 0 C1.98 0.66 3.96 1.32 6 2 C3.82575883 4.50037734 2.26954202 5.43628586 -1 6 C-0.67 4.02 -0.34 2.04 0 0 Z " fill="#589665" transform="translate(286,359)"/>
<path d="M0 0 C0.99 0 1.98 0 3 0 C4.85776765 3.13498292 5.20140476 5.37471432 5 9 C1.9083091 6.47043472 1.09068668 3.77545388 0 0 Z " fill="#4D825B" transform="translate(24,280)"/>
<path d="M0 0 C1.32 0.66 2.64 1.32 4 2 C3.34 3.98 2.68 5.96 2 8 C1.67 7.34 1.34 6.68 1 6 C0.34 6 -0.32 6 -1 6 C-0.67 4.02 -0.34 2.04 0 0 Z " fill="#86EC9E" transform="translate(227,229)"/>
<path d="M0 0 C2.5 1.3125 2.5 1.3125 5 3 C5 3.99 5 4.98 5 6 C4.01 5.34 3.02 4.68 2 4 C1.67 4.66 1.34 5.32 1 6 C0 5 0 5 -0.0625 2.4375 C-0.041875 1.633125 -0.02125 0.82875 0 0 Z " fill="#5BCA82" transform="translate(270,220)"/>
<path d="M0 0 C0 0.66 0 1.32 0 2 C-2.64 2.99 -5.28 3.98 -8 5 C-5.96115496 0.48541456 -5.19128917 0 0 0 Z " fill="#59BC6B" transform="translate(281,169)"/>
<path d="M0 0 C0.33 0.66 0.66 1.32 1 2 C0.34 1.67 -0.32 1.34 -1 1 C-0.67 0.67 -0.34 0.34 0 0 Z M-1 2 C-1 3.65 -1 5.3 -1 7 C-2.32 7.33 -3.64 7.66 -5 8 C-4.625 5.5625 -4.625 5.5625 -4 3 C-2 2 -2 2 -1 2 Z " fill="#94F99D" transform="translate(45,75)"/>
<path d="M0 0 C3.93673644 1.31224548 6.22719294 2.91910327 9 6 C2.35384615 4.52307692 2.35384615 4.52307692 0.5625 1.875 C0.376875 1.25625 0.19125 0.6375 0 0 Z " fill="#355938" transform="translate(304,32)"/>
<path d="M0 0 C2.31 0.33 4.62 0.66 7 1 C7 1.99 7 2.98 7 4 C4.36 3.34 1.72 2.68 -1 2 C-0.67 1.34 -0.34 0.68 0 0 Z " fill="#72B582" transform="translate(124,368)"/>
<path d="M0 0 C3.68754757 0.49831724 5.60490662 1.10067643 8 4 C7.01 4.495 7.01 4.495 6 5 C3.98079663 3.69593116 1.98075027 2.36176581 0 1 C0 0.67 0 0.34 0 0 Z " fill="#598B65" transform="translate(94,354)"/>
<path d="M0 0 C0.66 0 1.32 0 2 0 C2 0.99 2 1.98 2 3 C2.66 3 3.32 3 4 3 C4 3.66 4 4.32 4 5 C2.68 5.33 1.36 5.66 0 6 C-0.38218767 4.34385343 -0.71395102 2.67542976 -1 1 C-0.67 0.67 -0.34 0.34 0 0 Z " fill="#7ACB83" transform="translate(69,46)"/>
<path d="M0 0 C1.32 0.33 2.64 0.66 4 1 C4 2.32 4 3.64 4 5 C2.68 4.67 1.36 4.34 0 4 C0 2.68 0 1.36 0 0 Z " fill="#8BEA96" transform="translate(368,278)"/>
<path d="M0 0 C0.33 0 0.66 0 1 0 C1.33 3.3 1.66 6.6 2 10 C1.01 9.34 0.02 8.68 -1 8 C-0.67 5.36 -0.34 2.72 0 0 Z " fill="#4E8D55" transform="translate(390,157)"/>
<path d="" fill="#000000" transform="translate(0,0)"/>
<path d="" fill="#000000" transform="translate(0,0)"/>
<path d="" fill="#000000" transform="translate(0,0)"/>
<path d="" fill="#000000" transform="translate(0,0)"/>
<path d="" fill="#000000" transform="translate(0,0)"/>
<path d="" fill="#000000" transform="translate(0,0)"/>
<path d="" fill="#000000" transform="translate(0,0)"/>
<path d="" fill="#000000" transform="translate(0,0)"/>
<path d="" fill="#000000" transform="translate(0,0)"/>
<path d="" fill="#000000" transform="translate(0,0)"/>
<path d="" fill="#000000" transform="translate(0,0)"/>
<path d="" fill="#000000" transform="translate(0,0)"/>
<path d="" fill="#000000" transform="translate(0,0)"/>
<path d="" fill="#000000" transform="translate(0,0)"/>
<path d="" fill="#000000" transform="translate(0,0)"/>
<path d="" fill="#000000" transform="translate(0,0)"/>
</svg>
